HIERARCHY
ROOT hip
{
  OFFSET 0 0 0
  CHANNELS 6 Xposition Yposition Zposition Zrotation Yrotation Xrotation
  JOINT abdomen
  {
    OFFSET 0 20.6881 -0.73152
    CHANNELS 3 Zrotation Xrotation Yrotation
    JOINT chest
    {
      OFFSET 0 11.7043 -0.48768
      CHANNELS 3 Zrotation Xrotation Yrotation
      JOINT neck
      {
        OFFSET 0 22.1894 -2.19456
        CHANNELS 3 Zrotation Xrotation Yrotation
        JOINT head
        {
          OFFSET -0.24384 7.07133 1.2192
          CHANNELS 3 Zrotation Xrotation Yrotation
          JOINT leftEye
          {
            OFFSET 4.14528 8.04674 8.04672
            CHANNELS 3 Zrotation Xrotation Yrotation
            End Site
            {
              OFFSET 1 0 0
            }
          }
          JOINT rightEye
          {
            OFFSET -3.6576 8.04674 8.04672
            CHANNELS 3 Zrotation Xrotation Yrotation
            End Site
            {
              OFFSET 1 0 0
            }
          }
        }
      }
      JOINT rCollar
      {
        OFFSET -2.68224 19.2634 -4.8768
        CHANNELS 3 Zrotation Xrotation Yrotation
        JOINT rShldr
        {
          OFFSET -8.77824 -1.95073 1.46304
          CHANNELS 3 Zrotation Xrotation Yrotation
          JOINT rForeArm
          {
            OFFSET -28.1742 -1.7115 0.48768
            CHANNELS 3 Zrotation Xrotation Yrotation
            JOINT rHand
            {
              OFFSET -22.5879 0.773209 7.07136
              CHANNELS 3 Zrotation Xrotation Yrotation
              JOINT rThumb1
              {
                OFFSET -1.2192 -0.487915 3.41376
                CHANNELS 3 Zrotation Xrotation Yrotation
                JOINT rThumb2
                {
                  OFFSET -3.37035 -0.52449 3.41376
                  CHANNELS 3 Zrotation Xrotation Yrotation
                  End Site
                  {
                    OFFSET -1.78271 -1.18214 1.43049
                  }
                }
              }
              JOINT rIndex1
              {
                OFFSET -7.75947 0.938293 5.60832
                CHANNELS 3 Zrotation Xrotation Yrotation
                JOINT rIndex2
                {
                  OFFSET -2.54057 -0.884171 1.56538
                  CHANNELS 3 Zrotation Xrotation Yrotation
                  End Site
                  {
                    OFFSET -1.62519 -0.234802 1.16502
                  }
                }
              }
              JOINT rMid1
              {
                OFFSET -8.24714 1.18213 3.41376
                CHANNELS 3 Zrotation Xrotation Yrotation
                JOINT rMid2
                {
                  OFFSET -3.10165 -0.590103 1.0647
                  CHANNELS 3 Zrotation Xrotation Yrotation
                  End Site
                  {
                    OFFSET -2.48547 -0.328903 0.83742
                  }
                }
              }
              JOINT rRing1
              {
                OFFSET -8.82822 0.546677 1.51678
                CHANNELS 3 Zrotation Xrotation Yrotation
                JOINT rRing2
                {
                  OFFSET -2.60934 -0.819778 -0.0198488
                  CHANNELS 3 Zrotation Xrotation Yrotation
                  End Site
                  {
                    OFFSET -2.33842 -0.294052 0.168128
                  }
                }
              }
              JOINT rPinky1
              {
                OFFSET -8.27202 -0.0477905 -0.4584
                CHANNELS 3 Zrotation Xrotation Yrotation
                JOINT rPinky2
                {
                  OFFSET -1.82734 -0.647385 -0.700984
                  CHANNELS 3 Zrotation Xrotation Yrotation
                  End Site
                  {
                    OFFSET -1.69225 -0.51767 -0.607171
                  }
                }
              }
            }
          }
        }
      }
      JOINT lCollar
      {
        OFFSET 2.68224 19.2634 -4.8768
        CHANNELS 3 Zrotation Xrotation Yrotation
        JOINT lShldr
        {
          OFFSET 8.77824 -1.95073 1.46304
          CHANNELS 3 Zrotation Xrotation Yrotation
          JOINT lForeArm
          {
            OFFSET 28.1742 -1.7115 0.48768
            CHANNELS 3 Zrotation Xrotation Yrotation
            JOINT lHand
            {
              OFFSET 22.5879 0.773209 7.07136
              CHANNELS 3 Zrotation Xrotation Yrotation
              JOINT lThumb1
              {
                OFFSET 1.2192 -0.487915 3.41376
                CHANNELS 3 Zrotation Xrotation Yrotation
                JOINT lThumb2
                {
                  OFFSET 3.37035 -0.52449 3.41376
                  CHANNELS 3 Zrotation Xrotation Yrotation
                  End Site
                  {
                    OFFSET 1.78271 -1.18214 1.43049
                  }
                }
              }
              JOINT lIndex1
              {
                OFFSET 7.75947 0.938293 5.60832
                CHANNELS 3 Zrotation Xrotation Yrotation
                JOINT lIndex2
                {
                  OFFSET 2.54057 -0.884171 1.56538
                  CHANNELS 3 Zrotation Xrotation Yrotation
                  End Site
                  {
                    OFFSET 1.62519 -0.234802 1.16502
                  }
                }
              }
              JOINT lMid1
              {
                OFFSET 8.24714 1.18213 3.41376
                CHANNELS 3 Zrotation Xrotation Yrotation
                JOINT lMid2
                {
                  OFFSET 3.10165 -0.590103 1.0647
                  CHANNELS 3 Zrotation Xrotation Yrotation
                  End Site
                  {
                    OFFSET 2.48547 -0.328903 0.83742
                  }
                }
              }
              JOINT lRing1
              {
                OFFSET 8.82822 0.546677 1.51678
                CHANNELS 3 Zrotation Xrotation Yrotation
                JOINT lRing2
                {
                  OFFSET 2.60934 -0.819778 -0.0198488
                  CHANNELS 3 Zrotation Xrotation Yrotation
                  End Site
                  {
                    OFFSET 2.33842 -0.294052 0.168128
                  }
                }
              }
              JOINT lPinky1
              {
                OFFSET 8.27202 -0.0477905 -0.4584
                CHANNELS 3 Zrotation Xrotation Yrotation
                JOINT lPinky2
                {
                  OFFSET 1.82734 -0.647385 -0.700984
                  CHANNELS 3 Zrotation Xrotation Yrotation
                  End Site
                  {
                    OFFSET 1.69225 -0.51767 -0.607171
                  }
                }
              }
            }
          }
        }
      }
    }
  }
  JOINT rButtock
  {
    OFFSET -8.77824 4.35084 1.2192
    CHANNELS 3 Zrotation Xrotation Yrotation
    JOINT rThigh
    {
      OFFSET 0 -1.70687 -2.19456
      CHANNELS 3 Zrotation Xrotation Yrotation
      JOINT rShin
      {
        OFFSET 0 -36.8199 0.73152
        CHANNELS 3 Zrotation Xrotation Yrotation
        JOINT rFoot
        {
          OFFSET 0.73152 -45.1104 -5.12064
          CHANNELS 3 Zrotation Xrotation Yrotation
          End Site
          {
            OFFSET -1.1221 -3.69964 12.103
          }
        }
      }
    }
  }
  JOINT lButtock
  {
    OFFSET 8.77824 4.35084 1.2192
    CHANNELS 3 Zrotation Xrotation Yrotation
    JOINT lThigh
    {
      OFFSET 0 -1.70687 -2.19456
      CHANNELS 3 Zrotation Xrotation Yrotation
      JOINT lShin
      {
        OFFSET 0 -36.8199 0.73152
        CHANNELS 3 Zrotation Xrotation Yrotation
        JOINT lFoot
        {
          OFFSET -0.73152 -45.1104 -5.12064
          CHANNELS 3 Zrotation Xrotation Yrotation
          End Site
          {
            OFFSET 1.1221 -3.69964 12.103
          }
        }
      }
    }
  }
}
MOTION
Frames:	4
Frame Time:	0.03333
16.618603188544512 60.56325435638428 1.9086639396846294 -20.539587777711436 -23.046040099316212 12.838260913029625 17.987209264127493 6.4042265568590215 8.199308273104624 -1.3561683173735875 -7.773255586831214 2.24471840539283 -2.5059494489271343 14.114209405653353 1.4936910813823265 6.752139317706546 -22.021426346449672 4.957451191111866 0.0442033834827358 -0.005348038120119984 0.03293483867247092 0.10150141354314965 -0.010985985753995274 -0.17799451632712074 0.12134245941158878 -0.06537638294039354 0.10042361769624956 76.63612950651209 37.25814233747513 -17.89519807827096 -19.43957898169171 -12.704867318539275 38.23498233219201 -1.1074394015064628 13.592365023817807 1.3872336185443923 -0.09770959133673475 0.12788024444797358 -0.06897768022156209 0.010248912293015696 -0.21124059551429003 0.04166868960957349 -0.04386037992035423 -0.047106320601697005 0.06613314655608979 7.843893403227486 5.635634334180772 0.34558868226072187 -0.1494507288988143 -0.031222875769391024 -0.039142320029462135 2.942261292777314 0.937866828591085 0.14302336080727365 0.004225112331887575 -0.1058117965179566 -0.24423966731342814 10.525569959120709 0.6931136164294366 0.022708591401720556 0.12107214667105759 0.1450131336507159 -0.08568957897542302 2.3136420577508403 -0.7902077436889298 -0.2734333365690907 0.1004592227253409 -0.1610494573265538 -0.06772281972455736 -71.94195905601576 23.44225254287948 -8.964011129937374 13.843061994661248 -6.805171894630287 -25.09270628411053 -0.1412095453762386 11.349789376833657 -1.9492264926515073 -0.02447737027291585 0.09705544064114736 -0.03912022863636538 0.011673220178374917 0.036581506018809815 -0.044891951928437715 -0.16668969947710338 -0.007293975022912484 -0.04157925682012864 -7.690825448832915 5.577919235694164 -0.29318346888441726 -0.033626568748706606 -0.08110588171210978 -0.10637526044405621 -2.9655889501138466 1.1623194378789863 -0.10250638516606711 0.12092289636552223 0.011519754365461193 -0.15583159300706073 -10.547655375801945 0.7785003192038519 0.19041884387078548 -0.0013632030386927306 -0.06068641753854841 -0.032050769401990614 -2.348257029577642 -0.9102779869861111 0.39978980850191675 0.07970590637566873 -0.012268086966400716 -0.03537920596190246 2.014769201370361 7.50314209572472 -8.493349624420965 0.43892134963909496 35.54583781821503 1.5965082668360557 -13.030720275914952 -20.927498126338552 -31.267711265537102 0.15564576383686876 -0.10162549753644042 -0.12162048279536267 75.50763199146424 -57.329022043772774 63.71229144582408 3.3947959031233323 75.19394189345307 -3.3909552023756695 0.3342293306190502 -2.833836735458416 -1.6659384204097047
16.588025353848934 60.487425327301025 2.086713770404458 -20.553048373018235 -22.946782082750293 12.816404307685584 17.98979278318105 6.355725383562761 8.13510961754838 -1.3204871957060293 -7.758147208387146 2.21839058746337 -2.5132507077064665 14.115805962371843 1.4527144286738929 6.738322698789256 -21.949835718664186 4.879044888308351 0.04245037274356972 -0.005465485357332469 0.03587315403689867 0.09732283187498278 -0.011520608139107444 -0.1766508366904794 0.11704008056471543 -0.06961376826844598 0.09802173898593226 76.7116782289216 37.18412699253428 -18.012670501806006 -19.39458511053425 -12.702489558934465 38.21748338753844 -1.1138477197735215 13.478944610007868 1.345130198066318 -0.09956484147003947 0.1264977181104278 -0.06647078735275586 -0.007617581915268283 -0.21328090108541978 0.03039930436587558 -0.0443754188724555 -0.037860165456203805 0.08081741294138252 7.8461712713156855 5.623102644601091 0.34763400375202336 -0.137333332980977 -0.03978259690329794 -0.031850239316827275 2.944125720977316 0.936392148060597 0.1399797644800925 0.012915567555376768 -0.10394107173731358 -0.23821298586624393 10.529850780183015 0.6889723873582932 0.025182613985146114 0.1101040901636336 0.15832122363995682 -0.08999515947346981 2.3148334988741848 -0.7890282020357803 -0.26851602725350465 0.10781469613120995 -0.15473313316987872 -0.057282662134781316 -71.93993732002144 23.48768525369111 -8.947331807984202 13.75218120511235 -6.770047646823496 -24.963059048379936 -0.13792016896064274 11.62729910903763 -1.9560912596541933 -0.02168569053223181 0.09969093316542026 -0.03473887572721376 0.013612140129012287 0.03048668276248414 -0.04239551778679805 -0.17686390657607207 -0.007159505673627858 -0.04695861776089548 -7.677736245062232 5.576271452556899 -0.29229629134425605 -0.03455504758900521 -0.07774724290946178 -0.10668091140941427 -2.9599826454657356 1.1625587079433484 -0.09875850562200773 0.1100246358536793 -0.002600807969893918 -0.16597511761561723 -10.555401664094385 0.7819866505274674 0.19022791873914247 -0.003859263654362156 -0.058857527666571714 -0.02474961734436433 -2.328312877201205 -0.9093281638046562 0.41898541483400287 0.07429986500845652 -0.006610769342926091 -0.035135560307603404 2.0816145552299834 7.466226630808094 -8.585700612188708 0.445705008145387 35.60938931334741 1.59935496161607 -12.993722848728284 -20.897226727937056 -31.28171315333563 0.14268718743406208 -0.10747750223168685 -0.11569006432679332 75.49268070737108 -57.47400646928464 63.61997460900219 3.3834189424002066 75.17205113716318 -3.376177874662935 0.3160029708188712 -2.7845372838029103 -1.773340797230628
16.57470278441906 60.32264828681946 2.274884283542633 -20.73086722541764 -23.149387691647675 12.873057311756254 18.236393348069775 6.321648289133098 8.169354478499532 -1.2963140890162965 -7.736213763414942 2.234234918790507 -2.489531381709716 14.106052452237066 1.5245718607238352 6.677403387808266 -21.858591221541985 4.993296023876093 0.0316722808724367 -0.003011793258858279 0.05039893868910594 0.09079765334009342 -0.01165646487056723 -0.16416957311678024 0.11752545088260946 -0.08432610246235922 0.08853930198383894 76.82180819909888 37.19061908734038 -18.125423264624576 -19.407152658607075 -12.758065954437212 38.303065657838694 -1.1218716979444054 13.47881654396093 1.3065549971813786 -0.09414508636363435 0.12264074230263333 -0.07305386241303165 -0.013377138932881536 -0.2129563603781384 0.00900480400786845 -0.03249313087245472 -0.03340752244759018 0.0941879351285056 7.860053630803736 5.6402592260225175 0.3326369360470852 -0.12565413638707834 -0.03680591508564176 -0.02257158741192362 2.967110374751467 0.9510885807203489 0.13775493707966663 0.015572617864217509 -0.09015967098293191 -0.23820700945072018 10.538168243044797 0.6738975195298404 0.047744703165255184 0.09570882615759703 0.1762174932041538 -0.08764642817263167 2.3275858889414214 -0.7895368376855346 -0.2639456702034141 0.12507255645142232 -0.15748623301392276 -0.04886050527962668 -72.17370054436513 23.434587363083434 -8.784374593445099 13.719251155576426 -6.790737997366757 -24.95234589666677 -0.09487066723092259 11.770413770264199 -1.9130452730706573 -0.016425537736822853 0.1120341522126911 -0.018912473646647963 0.007608617291982642 0.029868177116627752 -0.043401796750611336 -0.1936012851371883 -0.007018419578584782 -0.0502031710600631 -7.675528386413025 5.585601490963136 -0.29920545457654707 -0.03083248776964248 -0.08127279445995196 -0.10398885638107722 -2.9557893362021708 1.1551660953838674 -0.10810879447191718 0.09840408283710754 -0.02367962552219952 -0.16743224242550425 -10.584562302982109 0.7799752131777515 0.1801518956094927 -0.009408098663909936 -0.06516061833172988 -0.028176451317006666 -2.3231195855544677 -0.9012475164080022 0.4447145239940294 0.0655699227538282 -0.00486320141075486 -0.017549424020407295 2.095603636423816 7.806906221324574 -8.77151249346432 0.4987198692659682 35.41527533713565 1.6065409609531582 -13.080102543614144 -21.032513992374792 -31.519277377952427 0.1479106813235351 -0.09697360510313283 -0.10494393560654185 76.32597061630182 -57.596123421455296 64.38567979609564 3.4461670365314676 75.46563315825783 -3.345484925523602 0.23295918301232896 -2.840503000088349 -2.0650069502630974
16.59320704638958 60.04073619842529 2.467685891315341 -20.97255005410396 -23.394234605467 12.926469391065755 18.54061338879673 6.270925169922467 8.224727675874473 -1.3018668193681053 -7.714647441110627 2.2618329384621783 -2.447141947060148 14.09972428197105 1.6357573085712993 6.6038648754488545 -21.754215685740434 5.174415565191906 0.025221860892447243 0.005247132747303624 0.0677196580940236 0.0903778101495492 -0.005076271296347523 -0.16215205262983481 0.1336099060477548 -0.09493359968680058 0.07516387059824992 76.77967276210907 37.20157812586366 -18.101012168530954 -19.40722949823524 -12.761943794338487 38.2857989396169 -1.1341580343224948 13.559265927099926 1.3008904224819107 -0.08595910464337407 0.11630392757844822 -0.08012641657687408 -0.00883527657823462 -0.21561148969627505 -0.012182229354099539 -0.016465558376490896 -0.03345693459736699 0.1013325264437505 7.867274848303732 5.6522466349027125 0.3200610636812108 -0.12265546989803117 -0.032961585799982394 -0.018012169336675658 2.9769834131967206 0.9712968693185952 0.13832333688465862 0.016538235858128063 -0.06773690698972051 -0.2361214538763391 10.53953854974703 0.6680316676932688 0.0689494523303829 0.08153250173097111 0.19538033597256507 -0.07932885858914286 2.3347319743605475 -0.7815583229613136 -0.24251675209529244 0.14118993526280124 -0.16640272481025706 -0.055980230437424505 -72.41509992020089 23.301350862943995 -8.540396821197659 13.69927285225414 -6.807892017467244 -24.95563463275213 -0.07060951513391996 11.808846390950213 -1.8275146560759958 -0.010001211213896952 0.11853985403627536 -0.00881243813319739 0.0012770319313808215 0.04625620217386842 -0.04801302821401619 -0.2027299396846161 -0.006736033945087067 -0.04786068297901318 -7.668434381186321 5.593093354708994 -0.3116180960934288 -0.017212130069285025 -0.08900606270428733 -0.10781429592481327 -2.9444830252482728 1.148927571350707 -0.12116016539790084 0.09763643360742157 -0.04700963073625901 -0.1633904246232963 -10.600908653213242 0.7766443220186067 0.160151821059226 -0.014679830764396185 -0.07486535664696597 -0.030125296386281707 -2.324378901682689 -0.8939684557434726 0.46169522804432733 0.0564991647317868 0.0010919231327028978 -0.004061401235218832 2.0872951381853184 8.207875891644758 -8.983325197362877 0.5067878167796341 35.1390010153978 1.6556956979756243 -13.19394301405804 -21.207501731363227 -31.761004602868347 0.16602199512488175 -0.08810721914766291 -0.0966749243991836 77.36937080448047 -57.547178285862984 65.4032277182658 3.548479001430027 75.81958722142623 -3.348507497674744 0.1559827376228737 -3.01983047052068 -2.331903849157339
